<?xml version="1.0" encoding="UTF-8" standalone="no"?>
<!-- Created with Inkscape (http://www.inkscape.org/) -->

<svg
   width="8250"
   height="9250"
   viewBox="0 0 8250 9250"
   version="1.1"
   id="svg1"
   inkscape:version="1.4.2 (ebf0e940d0, 2025-05-08)"
   sodipodi:docname="bloom.svg"
   xmlns:inkscape="http://www.inkscape.org/namespaces/inkscape"
   xmlns:sodipodi="http://sodipodi.sourceforge.net/DTD/sodipodi-0.dtd"
   xmlns="http://www.w3.org/2000/svg"
   xmlns:svg="http://www.w3.org/2000/svg">
  <sodipodi:namedview
     id="namedview1"
     pagecolor="#505050"
     bordercolor="#eeeeee"
     borderopacity="1"
     inkscape:showpageshadow="0"
     inkscape:pageopacity="0"
     inkscape:pagecheckerboard="true"
     inkscape:deskcolor="#505050"
     inkscape:document-units="px"
     inkscape:zoom="0.061503559"
     inkscape:cx="1203.1824"
     inkscape:cy="5479.3577"
     inkscape:window-width="1920"
     inkscape:window-height="1011"
     inkscape:window-x="0"
     inkscape:window-y="0"
     inkscape:window-maximized="1"
     inkscape:current-layer="layer1" />
  <defs
     id="defs1">
    <inkscape:path-effect
       effect="spiro"
       id="path-effect5"
       is_visible="true"
       lpeversion="1" />
    <inkscape:path-effect
       effect="spiro"
       id="path-effect3"
       is_visible="true"
       lpeversion="1" />
    <inkscape:path-effect
       effect="spiro"
       id="path-effect1"
       is_visible="true"
       lpeversion="1" />
    <filter
       inkscape:collect="always"
       style="color-interpolation-filters:sRGB"
       id="filter5"
       x="-0.41232855"
       y="-0.73321166"
       width="1.8246571"
       height="2.4664233">
      <feGaussianBlur
         inkscape:collect="always"
         stdDeviation="584.03938"
         id="feGaussianBlur5" />
    </filter>
    <filter
       inkscape:collect="always"
       style="color-interpolation-filters:sRGB"
       id="filter7"
       x="-0.45395266"
       y="-0.80722857"
       width="1.9079053"
       height="2.6144571">
      <feGaussianBlur
         inkscape:collect="always"
         stdDeviation="642.99747"
         id="feGaussianBlur7" />
    </filter>
    <filter
       inkscape:collect="always"
       style="color-interpolation-filters:sRGB"
       id="filter8"
       x="-0.38047012"
       y="-0.6765603"
       width="1.7609402"
       height="2.3531206">
      <feGaussianBlur
         inkscape:collect="always"
         stdDeviation="538.91377"
         id="feGaussianBlur8" />
    </filter>
  </defs>
  <g
     inkscape:label="Layer 1"
     inkscape:groupmode="layer"
     id="layer1"
     transform="translate(1988.024,2946.5829)">
    <path
       style="opacity:0.55;mix-blend-mode:normal;fill:#ff0ead;fill-opacity:0.641694;filter:url(#filter7)"
       d="M 1003.1138,189.7006 C 919.18293,143.71788 829.9917,103.62278 734.98253,92.131106 687.47795,86.385268 638.86109,87.969043 592.3996,99.41587 c -46.4615,11.44683 -90.72808,32.94238 -126.77086,64.41647 -58.30559,50.91493 -91.91398,124.42958 -114.97006,198.32335 -83.73303,268.36088 -42.53635,575.93104 120.71857,804.79041 92.31597,129.4134 219.66316,231.4972 359.69146,306.7444 140.0283,75.2472 292.73919,124.5798 447.64259,160.287 309.8068,71.4142 630.7614,89.7132 937.3366,173.9267 267.2053,73.399 527.7277,197.3039 804.7904,192.5748 81.0136,-1.3828 162.7249,-14.236 236.8507,-46.9543 74.1258,-32.7182 140.4142,-86.3733 179.9158,-157.1175 27.0133,-48.3787 40.8916,-103.2867 46.23,-158.4385 5.3384,-55.1518 2.3975,-110.7755 -2.5437,-165.9643 -9.8825,-110.3776 -27.6336,-222.7791 -3.4468,-330.9266 23.5672,-105.3771 84.924,-197.55389 135.0898,-293.17361 44.3543,-84.54244 80.9129,-174.71389 91.8227,-269.55956 10.9098,-94.84567 -5.7544,-195.25357 -60.2059,-273.67397 -34.4109,-49.55812 -82.7917,-88.78348 -136.9805,-115.3106 -54.1888,-26.52712 -114.0524,-40.60506 -174.2617,-44.47269 -120.4185,-7.73526 -240.0096,24.69005 -352.7099,67.80724 C 2786.5661,286.92813 2606.375,393.05367 2415.6742,475.47008 2224.9733,557.88649 2016.662,616.99281 1810.7784,589.22156 1660.8091,568.99249 1520.4808,503.72836 1389.8925,427.26473 1259.3042,350.80111 1135.8288,262.41041 1003.1138,189.7006 Z"
       id="path2"
       inkscape:path-effect="#path-effect3"
       inkscape:original-d="M 1003.1138,189.7006 C 733.89222,56.526946 643.83234,174.37126 465.62874,163.83234 287.42515,153.29341 390.8982,297.96407 350.65868,362.15569 c -40.23952,64.19162 78.56288,534.61078 120.71857,804.79041 42.15568,270.1796 1164.07185,427.3054 1744.67065,640.9581 580.5988,213.6527 535.5689,128.3832 804.7904,192.5748 269.2216,64.1917 277.8443,-137.964 416.7665,-204.0718 138.9221,-66.1078 27.7844,-434.9701 40.2395,-655.3294 12.4551,-220.35924 89.1018,-197.36523 135.0898,-293.17361 45.9881,-95.80838 21.0779,-360.23952 31.6168,-543.23353 10.5389,-182.99401 -442.6347,-61.31737 -663.9521,-91.97605 C 2759.2814,182.03593 2200.7186,463.71257 1810.7784,589.22156 1420.8383,714.73054 1272.3353,322.87425 1003.1138,189.7006 Z"
       transform="rotate(-134.65154,2075.9322,1058.7217)" />
    <path
       style="opacity:0.553191;mix-blend-mode:normal;fill:#91cfff;fill-opacity:0.641694;filter:url(#filter8)"
       d="M 1003.1138,189.7006 C 919.18293,143.71788 829.9917,103.62278 734.98253,92.131106 687.47795,86.385268 638.86109,87.969043 592.3996,99.41587 c -46.4615,11.44683 -90.72808,32.94238 -126.77086,64.41647 -58.30559,50.91493 -91.91398,124.42958 -114.97006,198.32335 -83.73303,268.36088 -42.53635,575.93104 120.71857,804.79041 92.31597,129.4134 219.66316,231.4972 359.69146,306.7444 140.0283,75.2472 292.73919,124.5798 447.64259,160.287 309.8068,71.4142 630.7614,89.7132 937.3366,173.9267 267.2053,73.399 527.7277,197.3039 804.7904,192.5748 81.0136,-1.3828 162.7249,-14.236 236.8507,-46.9543 74.1258,-32.7182 140.4142,-86.3733 179.9158,-157.1175 27.0133,-48.3787 40.8916,-103.2867 46.23,-158.4385 5.3384,-55.1518 2.3975,-110.7755 -2.5437,-165.9643 -9.8825,-110.3776 -27.6336,-222.7791 -3.4468,-330.9266 23.5672,-105.3771 84.924,-197.55389 135.0898,-293.17361 44.3543,-84.54244 80.9129,-174.71389 91.8227,-269.55956 10.9098,-94.84567 -5.7544,-195.25357 -60.2059,-273.67397 -34.4109,-49.55812 -82.7917,-88.78348 -136.9805,-115.3106 -54.1888,-26.52712 -114.0524,-40.60506 -174.2617,-44.47269 -120.4185,-7.73526 -240.0096,24.69005 -352.7099,67.80724 C 2786.5661,286.92813 2606.375,393.05367 2415.6742,475.47008 2224.9733,557.88649 2016.662,616.99281 1810.7784,589.22156 1660.8091,568.99249 1520.4808,503.72836 1389.8925,427.26473 1259.3042,350.80111 1135.8288,262.41041 1003.1138,189.7006 Z"
       id="path3"
       inkscape:path-effect="#path-effect5"
       inkscape:original-d="M 1003.1138,189.7006 C 733.89222,56.526946 643.83234,174.37126 465.62874,163.83234 287.42515,153.29341 390.8982,297.96407 350.65868,362.15569 c -40.23952,64.19162 78.56288,534.61078 120.71857,804.79041 42.15568,270.1796 1164.07185,427.3054 1744.67065,640.9581 580.5988,213.6527 535.5689,128.3832 804.7904,192.5748 269.2216,64.1917 277.8443,-137.964 416.7665,-204.0718 138.9221,-66.1078 27.7844,-434.9701 40.2395,-655.3294 12.4551,-220.35924 89.1018,-197.36523 135.0898,-293.17361 45.9881,-95.80838 21.0779,-360.23952 31.6168,-543.23353 10.5389,-182.99401 -442.6347,-61.31737 -663.9521,-91.97605 C 2759.2814,182.03593 2200.7186,463.71257 1810.7784,589.22156 1420.8383,714.73054 1272.3353,322.87425 1003.1138,189.7006 Z"
       transform="rotate(-134.65154,2192.7179,1851.0554)" />
    <path
       style="opacity:0.699088;mix-blend-mode:normal;fill:#231191;fill-opacity:1;filter:url(#filter5)"
       d="M 1003.1138,189.7006 C 919.18293,143.71788 829.9917,103.62278 734.98253,92.131106 687.47795,86.385268 638.86109,87.969043 592.3996,99.41587 c -46.4615,11.44683 -90.72808,32.94238 -126.77086,64.41647 -58.30559,50.91493 -91.91398,124.42958 -114.97006,198.32335 -83.73303,268.36088 -42.53635,575.93104 120.71857,804.79041 92.31597,129.4134 219.66316,231.4972 359.69146,306.7444 140.0283,75.2472 292.73919,124.5798 447.64259,160.287 309.8068,71.4142 630.7614,89.7132 937.3366,173.9267 267.2053,73.399 527.7277,197.3039 804.7904,192.5748 81.0136,-1.3828 162.7249,-14.236 236.8507,-46.9543 74.1258,-32.7182 140.4142,-86.3733 179.9158,-157.1175 27.0133,-48.3787 40.8916,-103.2867 46.23,-158.4385 5.3384,-55.1518 2.3975,-110.7755 -2.5437,-165.9643 -9.8825,-110.3776 -27.6336,-222.7791 -3.4468,-330.9266 23.5672,-105.3771 84.924,-197.55389 135.0898,-293.17361 44.3543,-84.54244 80.9129,-174.71389 91.8227,-269.55956 10.9098,-94.84567 -5.7544,-195.25357 -60.2059,-273.67397 -34.4109,-49.55812 -82.7917,-88.78348 -136.9805,-115.3106 -54.1888,-26.52712 -114.0524,-40.60506 -174.2617,-44.47269 -120.4185,-7.73526 -240.0096,24.69005 -352.7099,67.80724 C 2786.5661,286.92813 2606.375,393.05367 2415.6742,475.47008 2224.9733,557.88649 2016.662,616.99281 1810.7784,589.22156 1660.8091,568.99249 1520.4808,503.72836 1389.8925,427.26473 1259.3042,350.80111 1135.8288,262.41041 1003.1138,189.7006 Z"
       id="path1"
       inkscape:path-effect="#path-effect1"
       inkscape:original-d="M 1003.1138,189.7006 C 733.89222,56.526946 643.83234,174.37126 465.62874,163.83234 287.42515,153.29341 390.8982,297.96407 350.65868,362.15569 c -40.23952,64.19162 78.56288,534.61078 120.71857,804.79041 42.15568,270.1796 1164.07185,427.3054 1744.67065,640.9581 580.5988,213.6527 535.5689,128.3832 804.7904,192.5748 269.2216,64.1917 277.8443,-137.964 416.7665,-204.0718 138.9221,-66.1078 27.7844,-434.9701 40.2395,-655.3294 12.4551,-220.35924 89.1018,-197.36523 135.0898,-293.17361 45.9881,-95.80838 21.0779,-360.23952 31.6168,-543.23353 10.5389,-182.99401 -442.6347,-61.31737 -663.9521,-91.97605 C 2759.2814,182.03593 2200.7186,463.71257 1810.7784,589.22156 1420.8383,714.73054 1272.3353,322.87425 1003.1138,189.7006 Z"
       transform="rotate(-134.65154,2105.3154,1473.1899)" />
  </g>
</svg>
