<?xml version="1.0" encoding="UTF-8" standalone="no"?>
<svg
   width="30"
   height="30"
   viewBox="0 0 30.000001 30.000001"
   version="1.1"
   id="svg2"
   sodipodi:docname="logo.svg"
   inkscape:version="1.4.2 (ebf0e940d0, 2025-05-08)"
   inkscape:export-filename="logo.png"
   inkscape:export-xdpi="96"
   inkscape:export-ydpi="96"
   xmlns:inkscape="http://www.inkscape.org/namespaces/inkscape"
   xmlns:sodipodi="http://sodipodi.sourceforge.net/DTD/sodipodi-0.dtd"
   xmlns="http://www.w3.org/2000/svg"
   xmlns:svg="http://www.w3.org/2000/svg"><defs
   id="defs2" />
<sodipodi:namedview
   id="namedview2"
   pagecolor="#868686"
   bordercolor="#000000"
   borderopacity="0.25"
   inkscape:showpageshadow="2"
   inkscape:pageopacity="0.0"
   inkscape:pagecheckerboard="true"
   inkscape:deskcolor="#d1d1d1"
   inkscape:zoom="27.4375"
   inkscape:cx="16"
   inkscape:cy="14.542141"
   inkscape:window-width="1920"
   inkscape:window-height="1131"
   inkscape:window-x="0"
   inkscape:window-y="0"
   inkscape:window-maximized="1"
   inkscape:current-layer="svg2" />

    {/* Cat Face SVG */}
    <path
   d="M 6.5841666,5.8645609 A 0.64416869,0.64416869 0 0 0 6.0152513,6.2227668 c -0.039132,0.07425 -0.095321,0.2207432 -0.230777,0.5990168 -0.6582159,1.8321682 -1.183986,3.7064784 -1.7940399,6.3985414 -0.4033579,1.782 -0.5889828,2.727181 -0.7224322,3.708485 l -0.00903,0.0602 H 2.9499314 c -0.8117328,0 -1.5803204,0.02508 -2.3930566,0.08428 -0.35017892,0.0301 -0.35017892,0.0291 -0.3832904,0.05619 -0.0471588,0.04214 -0.0401352,0.111375 0.0130439,0.135456 0.0250845,0.005 0.0602026,0.005 0.26288503,-0.003 a 26.50122,26.50122 0 0 1 2.33987757,-0.08829 h 0.4475066 l -0.00101,0.004 a 20.771932,20.771932 0 0 0 -0.1334493,1.302385 l -0.00101,0.01003 -0.1755911,0.02609 a 41.248871,41.248871 0 0 0 -2.58670863,0.51674 c -0.18863506,0.05218 -0.18863506,0.05218 -0.21070938,0.0602 -0.05719255,0.03813 -0.04715877,0.118399 0.0190642,0.144487 0.0361216,0.02007 0.0521756,0.01606 0.24783436,-0.0301 0.78263485,-0.184621 1.66661095,-0.363223 2.47934705,-0.500685 0.097327,-0.02409 0.1846215,-0.0301 0.1956587,-0.0321 l 0.010034,-0.002 h 0.002 l 0.00101,9.96e-4 v 9.97e-4 h 0.00101 c 0.00301,0.0091 0,0.03712 -0.00602,0.119401 -0.2006756,2.294726 -0.1424797,3.557979 0.1715777,3.735577 0.1444864,0.08127 0.6020268,0.284959 0.9371551,0.415398 2.4000802,0.941169 6.0824778,1.492023 10.1732508,1.50005 l -0.002,-0.004 c 0.370247,9.96e-4 0.732466,-0.0081 1.095689,-0.01405 0.03512,0 0.06321,0.006 0.09733,0.006 v -0.003 c 0.199672,-0.003 0.399344,-0.006 0.598014,-0.01104 0.501688,-0.01505 0.996354,-0.03813 1.484999,-0.06823 0.702365,-0.04415 1.224121,-0.165556 1.87431,-0.236797 2.83655,-0.284959 5.345998,-0.725442 6.578147,-1.400715 0.140472,-0.07626 0.304023,-0.182615 0.338137,-0.215726 0.230778,-0.228771 0.295997,-1.300378 0.187632,-3.078364 -0.01606,-0.274925 -0.04415,-0.66223 -0.0572,-0.805712 l 0.44851,0.07324 c 0.875949,0.146494 1.742868,0.320079 2.59875,0.519751 0.200674,0.04716 0.195658,0.04616 0.221746,0.04415 0.09833,-0.01606 0.117395,-0.128432 0.02809,-0.164554 -0.01606,-0.006 -0.156527,-0.03713 -0.404362,-0.09532 A 41.630154,41.630154 0 0 0 26.357744,18.4098 l -0.170574,-0.02409 -0.002,-0.02609 c 0,-0.005 0,-0.01505 -0.002,-0.02809 l 0.158533,0.02207 c 0.104352,0.0081 0.190642,0.02409 0.192649,0.02308 0.006,-0.002 -0.03311,-0.441487 -0.06723,-0.750526 -0.02007,-0.187632 -0.04917,-0.416403 -0.05518,-0.449514 0.431452,-0.002 1.139837,-0.002 1.366601,0 0.696344,0.01806 1.244188,0.04314 1.816114,0.09031 0.170574,0.0071 0.195658,0.0071 0.22275,0 0.05016,-0.02408 0.05418,-0.09733 0.005,-0.137463 -0.0301,-0.02809 -0.03712,-0.0291 -0.378274,-0.05218 a 28.094585,28.094585 0 0 0 -1.710759,-0.08027 c -0.239807,-0.003 -1.009398,-0.002 -1.346534,0 v -0.01606 a 20.517074,20.517074 0 0 0 -0.07023,-0.483629 36.135656,36.135656 0 0 0 -0.391317,-2.073981 l -0.240822,-1.08665 A 140.13579,140.13579 0 0 0 25.311214,11.744356 C 24.827586,9.7526507 24.339944,8.1171445 23.773036,6.5729458 23.603465,6.1133986 23.528211,6.008044 23.305461,5.9217535 A 0.86089835,0.86089835 0 0 0 22.851934,5.8856318 C 22.557944,5.8204123 22.152581,5.9227568 21.759256,6.1645709 20.625439,6.8639254 19.627078,7.8482393 19.007994,8.8767018 18.230376,8.5776951 17.167798,8.3990938 15.879461,8.351935 a 42.58236,42.58236 0 0 0 -1.630489,-0.00401 c -0.02207,0 -0.03612,0.00502 -0.0592,0.00602 -0.246831,0.00401 -0.52577,-0.00602 -0.727449,0.00502 -1.151878,0.062209 -2.105087,0.2357938 -2.826515,0.5147329 A 7.7631359,7.7631359 0 0 0 9.2641894,7.2161111 8.3300444,8.3300444 0 0 0 8.7705274,6.793689 17.643399,17.643399 0 0 0 8.275862,6.4254492 9.6324291,9.6324291 0 0 0 8.127362,6.3251114 L 8.087227,6.2980202 7.9026054,6.1796215 C 7.5223251,5.9418209 7.1460583,5.8424866 6.8570855,5.8886419 A 1.1077294,1.1077294 0 0 0 6.5841666,5.8665676 Z M 22.732533,6.3632398 c 0.09231,0.00502 0.162547,0.07726 0.244824,0.22576 0.110371,0.1986689 0.455533,1.3204455 0.675273,2.1963945 0.329108,1.3124187 0.440484,2.2285027 0.318071,2.6228297 -0.02007,0.07024 -0.01606,0.06823 -0.09331,0.04917 v -0.002 c -0.284959,-0.07225 -1.314425,-0.61507 -1.856249,-0.978293 -0.967257,-0.6491859 -1.460919,-1.105723 -1.621459,-1.5010539 -0.03412,-0.085287 -0.01003,-0.1836182 0.09031,-0.3592093 0.332118,-0.5819593 1.486002,-1.8422021 1.967624,-2.147229 0.116392,-0.07425 0.202683,-0.1103717 0.274926,-0.1063581 z m -16.1022109,0 c 0.078264,0 0.172581,0.043146 0.3030201,0.1284324 C 7.3938928,6.7946923 8.4885781,7.9887121 8.8397605,8.5686647 8.9722063,8.7894078 8.9972908,8.8877389 8.950132,8.9971071 8.7795578,9.3814009 8.3681728,9.7677014 7.4530921,10.397823 6.8209639,10.833289 5.6751061,11.438326 5.4302819,11.46642 H 5.4092109 L 5.3981739,11.44535 C 5.3439914,11.31391 5.32292,11.01089 5.3480046,10.717903 a 0.94317535,0.94317535 0 0 1 0.00602,-0.06622 C 5.3921536,10.18611 5.5276096,9.4777252 5.7282852,8.6910768 5.9450149,7.8452292 6.2660958,6.8057294 6.3734573,6.6020437 6.457741,6.4425066 6.5299843,6.3652465 6.6303221,6.3642431 Z m 19.5026589,10.8154122 -0.06622,0.002 z m -11.102379,0.05619 c 0.49567,0.004 0.989332,0.102344 1.356568,0.295996 0.194656,0.103348 0.253854,0.162548 0.275929,0.279942 0.03712,0.193653 -0.139469,0.468578 -0.37727,0.586977 -0.09733,0.05017 -0.13044,0.05619 -0.304024,0.05619 -0.295997,0 -0.343155,0.02609 -0.479614,0.281949 -0.108365,0.200676 -0.172581,0.256865 -0.326098,0.29399 -0.0081,0 -0.01404,0 -0.01806,0.002 0,0 -0.002,0 -0.003,0.002 -0.01204,0.01104 -0.01404,0.07023 -0.03311,0.349175 l -0.02107,0.331115 0.01606,0.03712 c 0.126426,0.292987 0.419413,0.610054 0.740493,0.802704 0.492659,0.295996 1.069602,0.391317 1.739857,0.287969 0.342153,-0.05318 0.67126,-0.164554 0.938159,-0.321081 a 0.27091207,0.27091207 0 0 1 0.06321,-0.0321 v 0.003 a 0.30101341,0.30101341 0 0 1 -0.04013,0.04816 c -0.391317,0.411385 -0.923108,0.594 -1.700726,0.583966 -0.555871,-0.003 -0.945182,-0.09532 -1.318438,-0.311047 -0.292987,-0.165557 -0.453527,-0.343156 -0.51975,-0.570922 -0.0071,-0.02207 -0.01204,-0.04716 -0.01405,-0.05217 h -0.003 a 0.08127362,0.08127362 0 0 0 -0.01003,0.02809 c -0.05619,0.199673 -0.158534,0.337136 -0.3562,0.481622 -0.430449,0.315061 -1.039499,0.459548 -1.760929,0.418409 l -0.006,-0.01003 c -0.620036,-0.03615 -1.09062,-0.22479 -1.420731,-0.573966 a 0.77260109,0.77260109 0 0 1 -0.04716,-0.05518 h 0.0081 c 0.004,0 0.02508,0.006 0.05117,0.02308 0.623098,0.35921 1.489012,0.464565 2.168299,0.262886 0.581959,-0.171578 1.091675,-0.602027 1.274291,-1.075621 l 0.01705,-0.04716 -0.01104,-0.0873 a 8.8427707,8.8427707 0 0 1 -0.05619,-0.521756 l -9.97e-4,-0.0071 -0.04214,-0.006 c -0.140473,-0.04013 -0.206695,-0.09833 -0.305027,-0.285963 -0.135455,-0.253855 -0.178601,-0.280946 -0.473594,-0.283957 -0.162547,-9.96e-4 -0.16355,-9.96e-4 -0.200676,-0.006 -0.301013,-0.07726 -0.557878,-0.436469 -0.480618,-0.669253 0.0321,-0.09532 0.108365,-0.16054 0.311047,-0.262885 0.376267,-0.188635 0.873942,-0.280946 1.369611,-0.276932 z"
   fill="#ffffff"
   id="path1"
   style="stroke-width:1.00337" />

    {/* Glasses SVG */}
    <path
   d="m 0,10.300495 v 3.641259 h 1.2492056 v 1.214088 h 1.2502091 v 1.213083 h 1.250209 v 1.214088 h 1.2502091 v 1.213084 H 11.248871 V 17.58201 h 1.250209 v -1.214088 h 1.25021 v -1.213084 h 2.500417 v 1.214087 h 1.249206 v 1.214088 h 1.250209 v 1.213084 h 6.251046 V 17.58201 h 1.249204 v -1.214088 h 1.25021 v -1.213084 h 1.250209 V 13.940751 H 30 V 10.300495 H 1.2492056 Z m 4.9998328,1.214088 h 1.250209 v 3.641259 h 1.250209 v 1.213083 H 8.7494565 V 15.154838 H 9.999666 v -3.641259 h 1.250209 v 3.642263 H 9.999666 v 1.213083 H 8.7504599 v 1.214088 H 7.5012541 V 16.368925 H 6.2510451 V 15.154838 H 5.0008362 v -2.427171 z m 15.0005012,0 h 3.750628 v 1.214087 h -3.750628 v 1.213084 h 3.750628 v 1.214088 h 1.250209 v 1.213083 h -1.250209 v 1.214088 h -3.750628 v -1.214088 h 3.750628 v -1.214087 h -3.750628 v -1.214087 h -1.250209 v -1.213084 h 1.250209 z"
   fill="#006fee"
   id="path2"
   style="stroke-width:1.00337" />
</svg>
